<svg xmlns="http://www.w3.org/2000/svg" version="1.1" xmlns:xlink="http://www.w3.org/1999/xlink" width="12" height="12" x="0" y="0" viewBox="0 0 384 384" style="enable-background:new 0 0 512 512" xml:space="preserve" class=""><g><path d="M383.999 25.909a10.64 10.64 0 0 0-3.122-7.703L365.794 3.125a10.624 10.624 0 0 0-7.255-3.121 10.633 10.633 0 0 0-7.829 3.121L42.667 311.167v-172.5A10.66 10.66 0 0 0 32 128H10.667A10.66 10.66 0 0 0 0 138.667v234.667A10.66 10.66 0 0 0 10.667 384h234.667a10.66 10.66 0 0 0 10.667-10.667V352a10.66 10.66 0 0 0-10.667-10.667h-172.5L380.876 33.292a10.64 10.64 0 0 0 3.123-7.383z" fill="#5C5C5C" opacity="1" data-original="#000000"></path></g></svg>