<svg xmlns="http://www.w3.org/2000/svg" version="1.1" xmlns:xlink="http://www.w3.org/1999/xlink" width="12" height="12" x="0" y="0" viewBox="0 0 24 24" style="enable-background:new 0 0 512 512" xml:space="preserve" class=""><g><path d="m20.84 10.94-8.16-8.16c-.42-.42-.99-.63-1.59-.58l-6.48.59c-.96.09-1.72.85-1.81 1.81l-.59 6.48c-.05.59.16 1.18.58 1.6l8.15 8.15c.39.39.9.58 1.41.58s1.02-.19 1.41-.58l7.07-7.07c.78-.78.78-2.05 0-2.83zM8.11 8.11a1.499 1.499 0 0 1-2.12 0c-.58-.58-.58-1.54 0-2.12a1.499 1.499 0 0 1 2.12 0c.58.59.58 1.54 0 2.12z" fill="#5C5C5C" opacity="1" data-original="#000000" class=""></path></g></svg>