<svg xmlns="http://www.w3.org/2000/svg" version="1.1" xmlns:xlink="http://www.w3.org/1999/xlink" width="20" height="20" x="0" y="0" viewBox="0 0 128 128" style="enable-background:new 0 0 512 512" xml:space="preserve"><g><g data-name="Layer 8"><path fill="#87304B" d="M79.47 9.31c-2.54-.42-4.5 2.18-4.74 3.52C70.69 7.19 55 1.69 49.64 5s.8 9 .8 9S39 9.42 33.78 14s-.83 13.74-.83 21.73v26h62.1V36.44c0-10.44-7.35-25.76-15.58-27.13z" opacity="1" data-original="#87304b"></path><path fill="#349996" d="M63.94 92.87c-10.79 0-25 8-32.53 17.64a3.13 3.13 0 0 0 .07 4c10.9 12.7 55 12.64 65.06 0a3.13 3.13 0 0 0 0-3.86C89 100.9 74.73 92.87 63.94 92.87z" opacity="1" data-original="#349996"></path><ellipse cx="95.05" cy="61.69" fill="#E57E5A" rx="9.99" ry="7.27" transform="rotate(-45 95.048 61.71)" opacity="1" data-original="#e57e5a"></ellipse><ellipse cx="32.95" cy="61.69" fill="#E57E5A" rx="7.27" ry="9.99" transform="rotate(-45 32.944 61.701)" opacity="1" data-original="#e57e5a"></ellipse><path fill="#CC6436" d="M37.07 61.49c-1.84-1.89-4.45-3.91-7.15-3.91a1.27 1.27 0 1 0 0 2.54c2.79 0 6.18 3.89 7.48 5.69a17.28 17.28 0 0 0 1.6 1.93 24.4 24.4 0 0 1-.61-4.74 16.51 16.51 0 0 0-1.32-1.51zM89.46 63a24.4 24.4 0 0 1-.63 4.76 17.28 17.28 0 0 0 1.62-1.94c1.3-1.8 4.69-5.69 7.48-5.69a1.27 1.27 0 1 0 0-2.54c-2.71 0-5.31 2-7.15 3.91a16.51 16.51 0 0 0-1.32 1.5z" opacity="1" data-original="#cc6436"></path><path fill="#E57E5A" d="M70.29 93.76V77.22a6.35 6.35 0 0 0-12.69 0v16.54c-1.21.19 6.45 7.68 6.45 7.68s7.52-7.44 6.24-7.68z" opacity="1" data-original="#e57e5a"></path><path fill="#FF9566" d="M64 85.89c26.74 0 25.56-23.17 25.56-27V42.47C89.56 28.33 73.94 26 63.95 26s-25.62 2.33-25.62 16.47v16.62c0 4.64-1.07 26.8 25.67 26.8z" opacity="1" data-original="#ff9566"></path><path fill="#689998" d="m64 101.44 8.13 3.28s1.21-7.24 2-9.89-2.35-3.77-3.92-1.08-6.21 7.69-6.21 7.69z" opacity="1" data-original="#689998"></path><path fill="#689998" d="m64 101.44-8.13 3.28s-1.21-7.24-2-9.89 2.35-3.77 3.92-1.08 6.21 7.69 6.21 7.69z" opacity="1" data-original="#689998"></path><g fill="#6B1818"><ellipse cx="53.16" cy="53.59" rx="3.51" ry="3.49" fill="#6B1818" opacity="1" data-original="#6b1818"></ellipse><ellipse cx="74.74" cy="53.59" rx="3.47" ry="3.45" fill="#6B1818" opacity="1" data-original="#6b1818"></ellipse><path d="M58.47 43.83a1.27 1.27 0 1 0 0-2.54h-.31c-3.77 0-9 0-11.21 2.24a1.27 1.27 0 0 0 1.79 1.8c1.5-1.5 6.47-1.49 9.41-1.49zM69.42 43.83h.31c3 0 7.92 0 9.41 1.49a1.27 1.27 0 1 0 1.79-1.79c-2.24-2.24-7.44-2.25-11.21-2.24h-.31a1.27 1.27 0 1 0 0 2.54zM71.66 71.11a1.29 1.29 0 0 0-.31-1.79 1.25 1.25 0 0 0-1.75.31s-1.24 1.43-5.47.83a9.87 9.87 0 0 1-6.4-3.78 1.27 1.27 0 0 0-2.12 1.4A12.27 12.27 0 0 0 63.77 73a16.51 16.51 0 0 0 2.3.17c4.06-.02 5.42-1.82 5.59-2.06z" fill="#6B1818" opacity="1" data-original="#6b1818"></path></g><path fill="#689998" d="M64.61 123.97h-1.13v-22.28l.57-.25.56.25z" opacity="1" data-original="#689998"></path></g></g></svg>