<svg xmlns="http://www.w3.org/2000/svg" version="1.1" xmlns:xlink="http://www.w3.org/1999/xlink" width="12" height="12" x="0" y="0" viewBox="0 0 32 32" style="enable-background:new 0 0 512 512" xml:space="preserve" class=""><g><path d="M18 20c0 .552-.449 1-1 1h-2v-2h2c.551 0 1 .448 1 1zm-1-5h-2v2h2a1.001 1.001 0 0 0 0-2zm14-5v16c0 1.65-1.35 3-3 3H4c-1.65 0-3-1.35-3-3V8c0-2.76 2.24-5 5-5h18a3 3 0 0 1 2.82 2H6v2h22c1.65 0 3 1.35 3 3zm-11.78 8c.48-.532.78-1.229.78-2 0-1.654-1.346-3-3-3v-1h-2v1h-3v2h1v6h-1v2h3v1h2v-1c1.654 0 3-1.346 3-3 0-.771-.3-1.468-.78-2zM27 18c0-1.104-.897-2-2-2s-2 .896-2 2 .897 2 2 2 2-.896 2-2z" fill="#5C5C55" opacity="1" data-original="#000000" class=""></path></g></svg>