<svg xmlns="http://www.w3.org/2000/svg" version="1.1" xmlns:xlink="http://www.w3.org/1999/xlink" width="12" height="12" x="0" y="0" viewBox="0 0 32 32" style="enable-background:new 0 0 512 512" xml:space="preserve" class=""><g><path d="M31 12a1 1 0 0 1-.29.71l-6 6A1 1 0 0 1 24 19a1 1 0 0 1-.38-.07A1 1 0 0 1 23 18v-3h-9a1 1 0 0 1-1-1v-4a1 1 0 0 1 1-1h9V6a1 1 0 0 1 1.71-.7l6 6a1 1 0 0 1 .29.7zm-13 5H9v-3a1 1 0 0 0-.62-.92 1 1 0 0 0-1.09.21l-6 6A1 1 0 0 0 1 20a1 1 0 0 0 .29.71l6 6A1 1 0 0 0 8 27a.84.84 0 0 0 .38-.08A1 1 0 0 0 9 26v-3h9a1 1 0 0 0 1-1v-4a1 1 0 0 0-1-1z" data-name="Layer 24" fill="#5C5C5C" opacity="1" data-original="#000000" class=""></path></g></svg>